<?xml version="1.0" encoding="UTF-8" standalone="no"?>
<!DOCTYPE svg PUBLIC "-//W3C//DTD SVG 1.1//EN"
 "http://www.w3.org/Graphics/SVG/1.1/DTD/svg11.dtd">
<!-- Generated by graphviz version 2.38.0 (20140413.2041)
 -->
<!-- Title: %3 Pages: 1 -->
<svg width="267pt" height="189pt"
 viewBox="0.00 0.00 266.68 189.00" xmlns="http://www.w3.org/2000/svg" xmlns:xlink="http://www.w3.org/1999/xlink">
<g id="graph0" class="graph" transform="scale(1 1) rotate(0) translate(4 185)">
<title>%3</title>
<polygon fill="white" stroke="none" points="-4,4 -4,-185 262.677,-185 262.677,4 -4,4"/>
<!-- Rhttp://labd/tprdf/#c4 -->
<g id="node1" class="node"><title>Rhttp://labd/tprdf/#c4</title>
<g id="a_node1"><a xlink:href="http://labd/tprdf/#c4" xlink:title="http://labd/tprdf/#c4">
<ellipse fill="none" stroke="blue" cx="129.339" cy="-163" rx="107.482" ry="18"/>
<text text-anchor="middle" x="129.339" y="-159.3" font-family="Times,serif" font-size="14.00">http://labd/tprdf/#c4</text>
</a>
</g>
</g>
<!-- Rhttp://labd/tprdf/#citroen -->
<g id="node2" class="node"><title>Rhttp://labd/tprdf/#citroen</title>
<g id="a_node2"><a xlink:href="http://labd/tprdf/#citroen" xlink:title="http://labd/tprdf/#citroen">
<ellipse fill="none" stroke="blue" cx="129.339" cy="-91" rx="129.177" ry="18"/>
<text text-anchor="middle" x="129.339" y="-87.3" font-family="Times,serif" font-size="14.00">http://labd/tprdf/#citroen</text>
</a>
</g>
</g>
<!-- Rhttp://labd/tprdf/#c4&#45;&gt;Rhttp://labd/tprdf/#citroen -->
<g id="edge1" class="edge"><title>Rhttp://labd/tprdf/#c4&#45;&gt;Rhttp://labd/tprdf/#citroen</title>
<path fill="none" stroke="black" d="M129.339,-144.697C129.339,-136.983 129.339,-127.712 129.339,-119.112"/>
<polygon fill="black" stroke="black" points="132.839,-119.104 129.339,-109.104 125.839,-119.104 132.839,-119.104"/>
</g>
<!-- L1919 -->
<g id="node3" class="node"><title>L1919</title>
<polygon fill="none" stroke="black" points="102.339,-0.5 102.339,-36.5 156.339,-36.5 156.339,-0.5 102.339,-0.5"/>
<text text-anchor="middle" x="129.339" y="-14.8" font-family="Times,serif" font-size="14.00">1919</text>
</g>
<!-- Rhttp://labd/tprdf/#citroen&#45;&gt;L1919 -->
<g id="edge2" class="edge"><title>Rhttp://labd/tprdf/#citroen&#45;&gt;L1919</title>
<path fill="none" stroke="black" d="M129.339,-72.9339C129.339,-65.1695 129.339,-55.7842 129.339,-47.0597"/>
<polygon fill="black" stroke="black" points="132.839,-46.8987 129.339,-36.8987 125.839,-46.8987 132.839,-46.8987"/>
</g>
</g>
</svg>